<svg width="116" height="32" viewBox="0 0 116 32" fill="none" xmlns="http://www.w3.org/2000/svg">
  <rect width="32" height="32" rx="1.66234" fill="#28323C" />
  <path
    d="M6.39996 14.3398V6.98223C6.39996 6.52319 6.77099 6.15106 7.23003 6.15106H18.2416C22.6274 6.15106 25.6 10.035 25.6 13.673C25.6 16.5835 23.8497 18.0513 22.5177 19.5754L25.0355 24.8743C25.2976 25.4258 24.8954 26.0622 24.2848 26.0622H17.8321C17.72 26.0622 17.6127 26.0169 17.5345 25.9366L6.51789 14.6298C6.44228 14.5522 6.39996 14.4482 6.39996 14.3398Z"
    fill="white" />
  <path
    d="M6.39996 25.231V18.0305C6.39996 17.8454 6.62378 17.7527 6.75469 17.8836L14.5786 25.7074C14.7095 25.8384 14.6168 26.0622 14.4316 26.0622H7.23113C6.77209 26.0622 6.39996 25.69 6.39996 25.231Z"
    fill="white" />
  <path
    d="M66.3073 16.9759C66.2776 16.7088 66.2183 16.4417 66.1293 16.1746C66.0402 15.9076 65.9067 15.6701 65.7286 15.4624C65.5506 15.2547 65.3206 15.084 65.0386 14.9505C64.7716 14.8169 64.4377 14.7502 64.0371 14.7502C63.6513 14.7502 63.3174 14.8095 63.0355 14.9282C62.7536 15.0469 62.5161 15.2102 62.3232 15.4179C62.1303 15.6108 61.982 15.8408 61.8781 16.1079C61.7742 16.375 61.7075 16.6643 61.6778 16.9759H66.3073ZM69.4679 20.7151C69.3343 21.1158 69.1414 21.5461 68.8892 22.0061C68.6369 22.4512 68.2956 22.8667 67.8653 23.2525C67.4499 23.6234 66.9305 23.935 66.3073 24.1873C65.6989 24.4247 64.9719 24.5434 64.1261 24.5434C62.3752 24.5434 60.9952 24.0167 59.9862 22.9631C58.9772 21.9096 58.4727 20.4184 58.4727 18.4894C58.4727 17.4507 58.6063 16.5456 58.8733 15.774C59.1553 14.9876 59.5411 14.3347 60.0307 13.8154C60.5352 13.2812 61.1288 12.8805 61.8113 12.6135C62.5087 12.3464 63.2803 12.2128 64.1261 12.2128C65.0757 12.2128 65.8918 12.3835 66.5744 12.7247C67.257 13.0512 67.8134 13.526 68.2437 14.1492C68.674 14.7576 68.993 15.4921 69.2008 16.3527C69.4085 17.2133 69.5124 18.163 69.5124 19.2016H61.5887C61.6036 19.5874 61.6555 19.951 61.7446 20.2923C61.8484 20.6335 61.9968 20.9303 62.1897 21.1826C62.3974 21.4348 62.6645 21.6351 62.991 21.7835C63.3322 21.9319 63.7551 22.0061 64.2596 22.0061C64.6009 22.0061 64.8828 21.969 65.1054 21.8948C65.3428 21.8058 65.5357 21.7019 65.6841 21.5832C65.8473 21.4496 65.9809 21.3087 66.0847 21.1603C66.1886 20.9971 66.2776 20.8487 66.3518 20.7151H69.4679Z"
    fill="#28323C" />
  <path
    d="M71.9433 12.5689H74.9258V14.305H74.9703C75.1632 13.8896 75.3932 13.5483 75.6603 13.2812C75.9422 12.9993 76.2316 12.7841 76.5283 12.6357C76.8399 12.4725 77.1441 12.3612 77.4409 12.3019C77.7376 12.2425 78.0047 12.2128 78.2421 12.2128C79.0434 12.2128 79.7185 12.3983 80.2676 12.7693C80.8166 13.1254 81.232 13.6373 81.514 14.305C81.7069 13.8896 81.9517 13.5483 82.2485 13.2812C82.5601 12.9993 82.8791 12.7841 83.2055 12.6357C83.532 12.4725 83.851 12.3612 84.1626 12.3019C84.489 12.2425 84.771 12.2128 85.0084 12.2128C86.2251 12.2128 87.1525 12.5912 87.7906 13.348C88.4434 14.0899 88.7699 15.084 88.7699 16.3304V24.1873H85.6538V17.0872C85.6538 16.6272 85.6019 16.2563 85.498 15.9743C85.409 15.6776 85.2829 15.4476 85.1197 15.2843C84.9564 15.1063 84.771 14.9876 84.5632 14.9282C84.3555 14.8689 84.1403 14.8392 83.9178 14.8392C83.6952 14.8392 83.4652 14.8837 83.2278 14.9727C82.9904 15.0618 82.7752 15.225 82.5823 15.4624C82.3894 15.685 82.2262 15.9966 82.0927 16.3972C81.974 16.7978 81.9146 17.3023 81.9146 17.9107V24.1873H78.7986V17.0872C78.7986 16.6272 78.7466 16.2563 78.6428 15.9743C78.5537 15.6776 78.4276 15.4476 78.2644 15.2843C78.1012 15.1063 77.9157 14.9876 77.708 14.9282C77.5002 14.8689 77.2851 14.8392 77.0625 14.8392C76.8399 14.8392 76.6099 14.8837 76.3725 14.9727C76.1351 15.0618 75.92 15.225 75.7271 15.4624C75.5342 15.685 75.3709 15.9966 75.2374 16.3972C75.1187 16.7978 75.0593 17.3023 75.0593 17.9107V24.1873H71.9433V12.5689Z"
    fill="#28323C" />
  <path
    d="M98.3332 18.4449C97.9029 18.6971 97.443 18.8752 96.9533 18.9791C96.4636 19.0681 96.0036 19.172 95.5733 19.2907C95.1579 19.3945 94.8092 19.5578 94.5272 19.7803C94.2453 20.0029 94.1043 20.359 94.1043 20.8487C94.1043 21.19 94.2527 21.4867 94.5495 21.739C94.8463 21.9764 95.2617 22.0951 95.7959 22.0951C96.5972 22.0951 97.2204 21.8651 97.6655 21.4051C98.1107 20.9303 98.3332 20.2477 98.3332 19.3574V18.4449ZM98.8229 24.1873C98.7042 23.9944 98.6003 23.7421 98.5113 23.4305C98.4371 23.1189 98.3926 22.8815 98.3778 22.7183C98.2294 22.8964 98.0513 23.0967 97.8436 23.3193C97.6358 23.527 97.3836 23.7199 97.0868 23.8979C96.8049 24.076 96.471 24.2244 96.0853 24.3431C95.7143 24.4766 95.2766 24.5434 94.7721 24.5434C93.585 24.5434 92.6725 24.2392 92.0344 23.6309C91.3964 23.0077 91.0773 22.1025 91.0773 20.9155C91.0773 20.2626 91.1738 19.7284 91.3667 19.3129C91.5744 18.8826 91.8415 18.5339 92.168 18.2668C92.5092 17.9849 92.8876 17.7698 93.3031 17.6214C93.7334 17.473 94.1711 17.3617 94.6163 17.2875C95.0763 17.1985 95.5288 17.1243 95.974 17.0649C96.4191 17.0056 96.8197 16.9314 97.1759 16.8424C97.6062 16.7385 97.9029 16.6346 98.0662 16.5308C98.2442 16.4269 98.3332 16.2043 98.3332 15.863C98.3332 15.4476 98.17 15.1434 97.8436 14.9505C97.532 14.7576 97.0943 14.6611 96.5304 14.6611C96.0853 14.6611 95.7291 14.7131 95.462 14.8169C95.195 14.906 94.9798 15.0247 94.8166 15.1731C94.6682 15.3214 94.5643 15.4921 94.505 15.685C94.4456 15.8779 94.4011 16.0708 94.3714 16.2637H91.478C91.478 15.8482 91.5373 15.4031 91.656 14.9282C91.7896 14.4534 92.0344 14.0157 92.3905 13.615C92.7466 13.2144 93.2437 12.8805 93.8818 12.6135C94.5347 12.3464 95.3953 12.2128 96.4636 12.2128C98.1997 12.2128 99.4461 12.5393 100.203 13.1922C100.974 13.8302 101.36 14.7576 101.36 15.9743V21.7835C101.36 22.3622 101.42 22.7851 101.538 23.0522C101.657 23.3193 101.82 23.5047 102.028 23.6086V24.1873H98.8229Z"
    fill="#28323C" />
  <path
    d="M104.068 8.16199H107.184V16.9314L111.102 12.5689H114.841L110.567 17.0649L114.974 24.1873H111.235L108.386 19.1571L107.184 20.4035V24.1873H104.068V8.16199Z"
    fill="#28323C" />
  <path
    d="M56.6301 13.5048C56.6301 10.181 53.9556 7.47675 50.6685 7.47675H41.9555V24.1698H45.6241V19.5328H50.2838L52.6615 24.1698H56.7938L53.9153 18.5562C55.5483 17.4796 56.6301 15.6178 56.6301 13.5048ZM50.6685 15.8228H45.6241V11.1859H50.6685C51.9328 11.1859 52.9614 12.2259 52.9614 13.5043C52.9614 14.7832 51.9328 15.8228 50.6685 15.8228Z"
    fill="#28323C" />
</svg>